<mxfile host="app.diagrams.net" agent="Mozilla/5.0 (Macintosh; Intel Mac OS X 10_15_7) AppleWebKit/537.36 (KHTML, like Gecko) Chrome/139.0.0.0 Safari/537.36" version="28.1.2">
  <diagram name="Page-1" id="D4TebotzHGCMaRnrzphw">
    <mxGraphModel dx="1433" dy="870" grid="1" gridSize="10" guides="1" tooltips="1" connect="1" arrows="1" fold="1" page="1" pageScale="1" pageWidth="850" pageHeight="1100" math="0" shadow="0">
      <root>
        <mxCell id="0" />
        <mxCell id="1" parent="0" />
        <mxCell id="0oZE_neVgrIPyHd80c5C-3" value="" style="edgeStyle=orthogonalEdgeStyle;rounded=0;orthogonalLoop=1;jettySize=auto;html=1;" parent="1" source="0oZE_neVgrIPyHd80c5C-1" target="0oZE_neVgrIPyHd80c5C-2" edge="1">
          <mxGeometry relative="1" as="geometry" />
        </mxCell>
        <mxCell id="0oZE_neVgrIPyHd80c5C-1" value="Start" style="ellipse;whiteSpace=wrap;html=1;" parent="1" vertex="1">
          <mxGeometry x="352" y="40" width="120" height="60" as="geometry" />
        </mxCell>
        <mxCell id="0oZE_neVgrIPyHd80c5C-5" style="edgeStyle=orthogonalEdgeStyle;rounded=0;orthogonalLoop=1;jettySize=auto;html=1;exitX=0.5;exitY=1;exitDx=0;exitDy=0;entryX=0.5;entryY=0;entryDx=0;entryDy=0;" parent="1" source="0oZE_neVgrIPyHd80c5C-2" target="0oZE_neVgrIPyHd80c5C-4" edge="1">
          <mxGeometry relative="1" as="geometry" />
        </mxCell>
        <mxCell id="0oZE_neVgrIPyHd80c5C-2" value="int i&amp;nbsp; &amp;lt;-- 0&lt;div&gt;&lt;span style=&quot;background-color: transparent; color: light-dark(rgb(0, 0, 0), rgb(255, 255, 255));&quot;&gt;int n &amp;lt;-- 0&lt;/span&gt;&lt;div&gt;&lt;span style=&quot;background-color: transparent; color: light-dark(rgb(0, 0, 0), rgb(255, 255, 255));&quot;&gt;int j &amp;lt;-- 0&lt;/span&gt;&lt;/div&gt;&lt;/div&gt;" style="whiteSpace=wrap;html=1;" parent="1" vertex="1">
          <mxGeometry x="335" y="180" width="155" height="60" as="geometry" />
        </mxCell>
        <mxCell id="0oZE_neVgrIPyHd80c5C-7" value="" style="edgeStyle=orthogonalEdgeStyle;rounded=0;orthogonalLoop=1;jettySize=auto;html=1;" parent="1" source="0oZE_neVgrIPyHd80c5C-4" target="0oZE_neVgrIPyHd80c5C-6" edge="1">
          <mxGeometry relative="1" as="geometry" />
        </mxCell>
        <mxCell id="0oZE_neVgrIPyHd80c5C-4" value="show &quot;Enter Number : &quot;" style="shape=parallelogram;perimeter=parallelogramPerimeter;whiteSpace=wrap;html=1;fixedSize=1;" parent="1" vertex="1">
          <mxGeometry x="320" y="280" width="185" height="60" as="geometry" />
        </mxCell>
        <mxCell id="0oZE_neVgrIPyHd80c5C-9" value="" style="edgeStyle=orthogonalEdgeStyle;rounded=0;orthogonalLoop=1;jettySize=auto;html=1;" parent="1" source="0oZE_neVgrIPyHd80c5C-6" target="0oZE_neVgrIPyHd80c5C-8" edge="1">
          <mxGeometry relative="1" as="geometry" />
        </mxCell>
        <mxCell id="0oZE_neVgrIPyHd80c5C-114" value="T" style="edgeLabel;html=1;align=center;verticalAlign=middle;resizable=0;points=[];" parent="0oZE_neVgrIPyHd80c5C-9" vertex="1" connectable="0">
          <mxGeometry x="-0.2836" y="1" relative="1" as="geometry">
            <mxPoint as="offset" />
          </mxGeometry>
        </mxCell>
        <mxCell id="0oZE_neVgrIPyHd80c5C-11" style="edgeStyle=orthogonalEdgeStyle;rounded=0;orthogonalLoop=1;jettySize=auto;html=1;exitX=1;exitY=0.5;exitDx=0;exitDy=0;entryX=0;entryY=0.5;entryDx=0;entryDy=0;" parent="1" source="0oZE_neVgrIPyHd80c5C-6" target="0oZE_neVgrIPyHd80c5C-10" edge="1">
          <mxGeometry relative="1" as="geometry" />
        </mxCell>
        <mxCell id="0oZE_neVgrIPyHd80c5C-14" value="F" style="edgeLabel;html=1;align=center;verticalAlign=middle;resizable=0;points=[];" parent="0oZE_neVgrIPyHd80c5C-11" vertex="1" connectable="0">
          <mxGeometry x="-0.0357" y="2" relative="1" as="geometry">
            <mxPoint as="offset" />
          </mxGeometry>
        </mxCell>
        <mxCell id="0oZE_neVgrIPyHd80c5C-6" value="รับค่าเป็นตัวเลขตัวเลข?" style="rhombus;whiteSpace=wrap;html=1;" parent="1" vertex="1">
          <mxGeometry x="321" y="380" width="182" height="80" as="geometry" />
        </mxCell>
        <mxCell id="0oZE_neVgrIPyHd80c5C-13" style="edgeStyle=orthogonalEdgeStyle;rounded=0;orthogonalLoop=1;jettySize=auto;html=1;exitX=1;exitY=0.5;exitDx=0;exitDy=0;entryX=0;entryY=0.5;entryDx=0;entryDy=0;" parent="1" source="0oZE_neVgrIPyHd80c5C-8" target="0oZE_neVgrIPyHd80c5C-12" edge="1">
          <mxGeometry relative="1" as="geometry" />
        </mxCell>
        <mxCell id="0oZE_neVgrIPyHd80c5C-15" value="F" style="edgeLabel;html=1;align=center;verticalAlign=middle;resizable=0;points=[];" parent="0oZE_neVgrIPyHd80c5C-13" vertex="1" connectable="0">
          <mxGeometry x="0.0476" y="-1" relative="1" as="geometry">
            <mxPoint x="1" as="offset" />
          </mxGeometry>
        </mxCell>
        <mxCell id="0oZE_neVgrIPyHd80c5C-17" value="" style="edgeStyle=orthogonalEdgeStyle;rounded=0;orthogonalLoop=1;jettySize=auto;html=1;entryX=0.5;entryY=0;entryDx=0;entryDy=0;" parent="1" source="0oZE_neVgrIPyHd80c5C-8" target="0oZE_neVgrIPyHd80c5C-20" edge="1">
          <mxGeometry relative="1" as="geometry" />
        </mxCell>
        <mxCell id="0oZE_neVgrIPyHd80c5C-115" value="T" style="edgeLabel;html=1;align=center;verticalAlign=middle;resizable=0;points=[];" parent="0oZE_neVgrIPyHd80c5C-17" vertex="1" connectable="0">
          <mxGeometry x="-0.2239" y="-1" relative="1" as="geometry">
            <mxPoint as="offset" />
          </mxGeometry>
        </mxCell>
        <mxCell id="0oZE_neVgrIPyHd80c5C-8" value="ตัวเลขที่กรอก &amp;gt;= 2" style="rhombus;whiteSpace=wrap;html=1;" parent="1" vertex="1">
          <mxGeometry x="325" y="510" width="174.5" height="80" as="geometry" />
        </mxCell>
        <mxCell id="0oZE_neVgrIPyHd80c5C-10" value="&lt;span&gt;&lt;font face=&quot;Helvetica&quot; style=&quot;color: light-dark(rgb(0, 0, 0), rgb(255, 255, 255));&quot;&gt;show &quot;&lt;span style=&quot;white-space: pre;&quot;&gt;ให้กรอกเฉพาะตัวเลขเท่านั้น&lt;/span&gt;&quot;&lt;/font&gt;&lt;/span&gt;" style="shape=parallelogram;perimeter=parallelogramPerimeter;whiteSpace=wrap;html=1;fixedSize=1;" parent="1" vertex="1">
          <mxGeometry x="537" y="390" width="240" height="60" as="geometry" />
        </mxCell>
        <mxCell id="0oZE_neVgrIPyHd80c5C-12" value="&lt;p&gt;&lt;font style=&quot;color: light-dark(rgb(0, 0, 0), rgb(255, 255, 255));&quot; face=&quot;Helvetica&quot;&gt;&lt;font style=&quot;&quot;&gt;show &quot;&lt;/font&gt;&lt;span style=&quot;white-space: pre;&quot;&gt;ไม่มีจำนวนเฉพาะในช่วง 1 ถึง ...&lt;/span&gt;&quot;&lt;/font&gt;&lt;/p&gt;" style="shape=parallelogram;perimeter=parallelogramPerimeter;whiteSpace=wrap;html=1;fixedSize=1;" parent="1" vertex="1">
          <mxGeometry x="537" y="520" width="240" height="60" as="geometry" />
        </mxCell>
        <mxCell id="0oZE_neVgrIPyHd80c5C-57" style="edgeStyle=orthogonalEdgeStyle;rounded=0;orthogonalLoop=1;jettySize=auto;html=1;exitX=0.5;exitY=1;exitDx=0;exitDy=0;entryX=0.5;entryY=0;entryDx=0;entryDy=0;" parent="1" source="0oZE_neVgrIPyHd80c5C-16" target="0oZE_neVgrIPyHd80c5C-22" edge="1">
          <mxGeometry relative="1" as="geometry" />
        </mxCell>
        <mxCell id="0oZE_neVgrIPyHd80c5C-16" value="" style="ellipse;whiteSpace=wrap;html=1;" parent="1" vertex="1">
          <mxGeometry x="397" y="760" width="30" height="30" as="geometry" />
        </mxCell>
        <mxCell id="0oZE_neVgrIPyHd80c5C-56" style="edgeStyle=orthogonalEdgeStyle;rounded=0;orthogonalLoop=1;jettySize=auto;html=1;exitX=0.5;exitY=1;exitDx=0;exitDy=0;entryX=0.5;entryY=0;entryDx=0;entryDy=0;" parent="1" source="0oZE_neVgrIPyHd80c5C-20" target="0oZE_neVgrIPyHd80c5C-16" edge="1">
          <mxGeometry relative="1" as="geometry" />
        </mxCell>
        <mxCell id="0oZE_neVgrIPyHd80c5C-20" value="ให้ i &amp;lt;-- n" style="whiteSpace=wrap;html=1;" parent="1" vertex="1">
          <mxGeometry x="352" y="640" width="120" height="60" as="geometry" />
        </mxCell>
        <mxCell id="0oZE_neVgrIPyHd80c5C-27" value="" style="edgeStyle=orthogonalEdgeStyle;rounded=0;orthogonalLoop=1;jettySize=auto;html=1;entryX=0.5;entryY=0;entryDx=0;entryDy=0;" parent="1" source="0oZE_neVgrIPyHd80c5C-22" target="0oZE_neVgrIPyHd80c5C-31" edge="1">
          <mxGeometry relative="1" as="geometry">
            <mxPoint x="412.5" y="960" as="targetPoint" />
          </mxGeometry>
        </mxCell>
        <mxCell id="0oZE_neVgrIPyHd80c5C-30" value="T" style="edgeLabel;html=1;align=center;verticalAlign=middle;resizable=0;points=[];" parent="0oZE_neVgrIPyHd80c5C-27" vertex="1" connectable="0">
          <mxGeometry x="-0.0599" y="1" relative="1" as="geometry">
            <mxPoint as="offset" />
          </mxGeometry>
        </mxCell>
        <mxCell id="0oZE_neVgrIPyHd80c5C-79" style="edgeStyle=orthogonalEdgeStyle;rounded=0;orthogonalLoop=1;jettySize=auto;html=1;exitX=1;exitY=0.5;exitDx=0;exitDy=0;entryX=0;entryY=0.5;entryDx=0;entryDy=0;" parent="1" source="0oZE_neVgrIPyHd80c5C-22" target="0oZE_neVgrIPyHd80c5C-78" edge="1">
          <mxGeometry relative="1" as="geometry" />
        </mxCell>
        <mxCell id="0oZE_neVgrIPyHd80c5C-80" value="F" style="edgeLabel;html=1;align=center;verticalAlign=middle;resizable=0;points=[];" parent="0oZE_neVgrIPyHd80c5C-79" vertex="1" connectable="0">
          <mxGeometry x="-0.0834" y="4" relative="1" as="geometry">
            <mxPoint as="offset" />
          </mxGeometry>
        </mxCell>
        <mxCell id="0oZE_neVgrIPyHd80c5C-22" value="i &amp;gt;= 2 ?" style="rhombus;whiteSpace=wrap;html=1;" parent="1" vertex="1">
          <mxGeometry x="370" y="831" width="85" height="80" as="geometry" />
        </mxCell>
        <mxCell id="0oZE_neVgrIPyHd80c5C-42" style="edgeStyle=orthogonalEdgeStyle;rounded=0;orthogonalLoop=1;jettySize=auto;html=1;exitX=0.5;exitY=1;exitDx=0;exitDy=0;entryX=0.5;entryY=0;entryDx=0;entryDy=0;" parent="1" source="0oZE_neVgrIPyHd80c5C-31" target="0oZE_neVgrIPyHd80c5C-41" edge="1">
          <mxGeometry relative="1" as="geometry" />
        </mxCell>
        <mxCell id="0oZE_neVgrIPyHd80c5C-31" value="ให้ j &amp;lt;-- 2" style="whiteSpace=wrap;html=1;" parent="1" vertex="1">
          <mxGeometry x="352.5" y="964" width="120" height="60" as="geometry" />
        </mxCell>
        <mxCell id="0oZE_neVgrIPyHd80c5C-33" value="" style="strokeWidth=2;html=1;shape=mxgraph.flowchart.annotation_2;align=left;labelPosition=right;pointerEvents=1;rotation=-180;" parent="1" vertex="1">
          <mxGeometry x="527" y="620" width="50" height="185" as="geometry" />
        </mxCell>
        <mxCell id="0oZE_neVgrIPyHd80c5C-34" value="วนตั้งแต่ 2 จนถึง เลขที่กรอก" style="text;html=1;align=center;verticalAlign=middle;whiteSpace=wrap;rounded=0;" parent="1" vertex="1">
          <mxGeometry x="597" y="697.5" width="150" height="30" as="geometry" />
        </mxCell>
        <mxCell id="0oZE_neVgrIPyHd80c5C-38" value="" style="edgeStyle=orthogonalEdgeStyle;rounded=0;orthogonalLoop=1;jettySize=auto;html=1;" parent="1" target="0oZE_neVgrIPyHd80c5C-37" edge="1">
          <mxGeometry relative="1" as="geometry">
            <mxPoint x="412.53846153846143" y="1239.0015384615385" as="sourcePoint" />
          </mxGeometry>
        </mxCell>
        <mxCell id="0oZE_neVgrIPyHd80c5C-66" value="T" style="edgeLabel;html=1;align=center;verticalAlign=middle;resizable=0;points=[];" parent="0oZE_neVgrIPyHd80c5C-38" vertex="1" connectable="0">
          <mxGeometry x="-0.2439" relative="1" as="geometry">
            <mxPoint as="offset" />
          </mxGeometry>
        </mxCell>
        <mxCell id="0oZE_neVgrIPyHd80c5C-63" style="edgeStyle=orthogonalEdgeStyle;rounded=0;orthogonalLoop=1;jettySize=auto;html=1;exitX=1;exitY=0.5;exitDx=0;exitDy=0;entryX=1;entryY=0.5;entryDx=0;entryDy=0;" parent="1" source="0oZE_neVgrIPyHd80c5C-35" target="0oZE_neVgrIPyHd80c5C-60" edge="1">
          <mxGeometry relative="1" as="geometry">
            <Array as="points">
              <mxPoint x="517" y="1199" />
              <mxPoint x="517" y="1444" />
            </Array>
          </mxGeometry>
        </mxCell>
        <mxCell id="0oZE_neVgrIPyHd80c5C-67" value="F" style="edgeLabel;html=1;align=center;verticalAlign=middle;resizable=0;points=[];" parent="0oZE_neVgrIPyHd80c5C-63" vertex="1" connectable="0">
          <mxGeometry x="-0.06" y="-1" relative="1" as="geometry">
            <mxPoint y="1" as="offset" />
          </mxGeometry>
        </mxCell>
        <mxCell id="0oZE_neVgrIPyHd80c5C-35" value="j &amp;lt; i ?" style="rhombus;whiteSpace=wrap;html=1;" parent="1" vertex="1">
          <mxGeometry x="372.5" y="1159" width="80" height="80" as="geometry" />
        </mxCell>
        <mxCell id="0oZE_neVgrIPyHd80c5C-61" style="edgeStyle=orthogonalEdgeStyle;rounded=0;orthogonalLoop=1;jettySize=auto;html=1;exitX=0.5;exitY=1;exitDx=0;exitDy=0;entryX=0.5;entryY=0;entryDx=0;entryDy=0;" parent="1" source="0oZE_neVgrIPyHd80c5C-37" target="0oZE_neVgrIPyHd80c5C-60" edge="1">
          <mxGeometry relative="1" as="geometry" />
        </mxCell>
        <mxCell id="0oZE_neVgrIPyHd80c5C-68" value="T" style="edgeLabel;html=1;align=center;verticalAlign=middle;resizable=0;points=[];" parent="0oZE_neVgrIPyHd80c5C-61" vertex="1" connectable="0">
          <mxGeometry x="0.0065" y="1" relative="1" as="geometry">
            <mxPoint x="-1" as="offset" />
          </mxGeometry>
        </mxCell>
        <mxCell id="0oZE_neVgrIPyHd80c5C-92" style="edgeStyle=orthogonalEdgeStyle;rounded=0;orthogonalLoop=1;jettySize=auto;html=1;exitX=0;exitY=0.5;exitDx=0;exitDy=0;entryX=1;entryY=0.5;entryDx=0;entryDy=0;" parent="1" source="0oZE_neVgrIPyHd80c5C-37" target="0oZE_neVgrIPyHd80c5C-89" edge="1">
          <mxGeometry relative="1" as="geometry" />
        </mxCell>
        <mxCell id="0oZE_neVgrIPyHd80c5C-102" value="F" style="edgeLabel;html=1;align=center;verticalAlign=middle;resizable=0;points=[];" parent="0oZE_neVgrIPyHd80c5C-92" vertex="1" connectable="0">
          <mxGeometry x="0.033" y="-1" relative="1" as="geometry">
            <mxPoint as="offset" />
          </mxGeometry>
        </mxCell>
        <mxCell id="0oZE_neVgrIPyHd80c5C-37" value="i หาร j แล้วไม่มีเศษ?" style="rhombus;whiteSpace=wrap;html=1;" parent="1" vertex="1">
          <mxGeometry x="345" y="1304.04" width="134.5" height="80" as="geometry" />
        </mxCell>
        <mxCell id="0oZE_neVgrIPyHd80c5C-100" style="edgeStyle=orthogonalEdgeStyle;rounded=0;orthogonalLoop=1;jettySize=auto;html=1;exitX=0.5;exitY=0;exitDx=0;exitDy=0;entryX=0.5;entryY=1;entryDx=0;entryDy=0;" parent="1" source="0oZE_neVgrIPyHd80c5C-39" target="0oZE_neVgrIPyHd80c5C-99" edge="1">
          <mxGeometry relative="1" as="geometry" />
        </mxCell>
        <mxCell id="0oZE_neVgrIPyHd80c5C-39" value="j &amp;lt;-- j + 1" style="whiteSpace=wrap;html=1;" parent="1" vertex="1">
          <mxGeometry x="200" y="1190" width="120" height="60" as="geometry" />
        </mxCell>
        <mxCell id="0oZE_neVgrIPyHd80c5C-43" style="edgeStyle=orthogonalEdgeStyle;rounded=0;orthogonalLoop=1;jettySize=auto;html=1;exitX=0.5;exitY=1;exitDx=0;exitDy=0;entryX=0.5;entryY=0;entryDx=0;entryDy=0;" parent="1" source="0oZE_neVgrIPyHd80c5C-41" target="0oZE_neVgrIPyHd80c5C-35" edge="1">
          <mxGeometry relative="1" as="geometry" />
        </mxCell>
        <mxCell id="0oZE_neVgrIPyHd80c5C-41" value="" style="ellipse;whiteSpace=wrap;html=1;" parent="1" vertex="1">
          <mxGeometry x="397" y="1079" width="30" height="30" as="geometry" />
        </mxCell>
        <mxCell id="0oZE_neVgrIPyHd80c5C-50" style="edgeStyle=orthogonalEdgeStyle;rounded=0;orthogonalLoop=1;jettySize=auto;html=1;exitX=0.5;exitY=1;exitDx=0;exitDy=0;entryX=0.5;entryY=0;entryDx=0;entryDy=0;" parent="1" source="0oZE_neVgrIPyHd80c5C-45" target="0oZE_neVgrIPyHd80c5C-49" edge="1">
          <mxGeometry relative="1" as="geometry" />
        </mxCell>
        <mxCell id="0oZE_neVgrIPyHd80c5C-69" value="T" style="edgeLabel;html=1;align=center;verticalAlign=middle;resizable=0;points=[];" parent="0oZE_neVgrIPyHd80c5C-50" vertex="1" connectable="0">
          <mxGeometry x="-0.1772" y="-1" relative="1" as="geometry">
            <mxPoint as="offset" />
          </mxGeometry>
        </mxCell>
        <mxCell id="0oZE_neVgrIPyHd80c5C-88" style="edgeStyle=orthogonalEdgeStyle;rounded=0;orthogonalLoop=1;jettySize=auto;html=1;exitX=0;exitY=0.5;exitDx=0;exitDy=0;entryX=1;entryY=0.5;entryDx=0;entryDy=0;" parent="1" source="0oZE_neVgrIPyHd80c5C-45" target="0oZE_neVgrIPyHd80c5C-91" edge="1">
          <mxGeometry relative="1" as="geometry">
            <mxPoint x="307" y="1550" as="targetPoint" />
          </mxGeometry>
        </mxCell>
        <mxCell id="0oZE_neVgrIPyHd80c5C-113" value="F" style="edgeLabel;html=1;align=center;verticalAlign=middle;resizable=0;points=[];" parent="0oZE_neVgrIPyHd80c5C-88" vertex="1" connectable="0">
          <mxGeometry x="-0.1065" y="-1" relative="1" as="geometry">
            <mxPoint as="offset" />
          </mxGeometry>
        </mxCell>
        <mxCell id="0oZE_neVgrIPyHd80c5C-45" value="j == i" style="rhombus;whiteSpace=wrap;html=1;" parent="1" vertex="1">
          <mxGeometry x="372.25" y="1508" width="80" height="80" as="geometry" />
        </mxCell>
        <mxCell id="0oZE_neVgrIPyHd80c5C-95" style="edgeStyle=orthogonalEdgeStyle;rounded=0;orthogonalLoop=1;jettySize=auto;html=1;exitX=0;exitY=0.5;exitDx=0;exitDy=0;entryX=1;entryY=0.5;entryDx=0;entryDy=0;" parent="1" source="0oZE_neVgrIPyHd80c5C-49" target="0oZE_neVgrIPyHd80c5C-83" edge="1">
          <mxGeometry relative="1" as="geometry" />
        </mxCell>
        <mxCell id="0oZE_neVgrIPyHd80c5C-49" value="show &quot;จำนวนเฉพาะ : &quot;&amp;nbsp; + i" style="shape=parallelogram;perimeter=parallelogramPerimeter;whiteSpace=wrap;html=1;fixedSize=1;" parent="1" vertex="1">
          <mxGeometry x="325" y="1648" width="175" height="60" as="geometry" />
        </mxCell>
        <mxCell id="0oZE_neVgrIPyHd80c5C-98" style="edgeStyle=orthogonalEdgeStyle;rounded=0;orthogonalLoop=1;jettySize=auto;html=1;exitX=0.5;exitY=0;exitDx=0;exitDy=0;entryX=0.5;entryY=1;entryDx=0;entryDy=0;" parent="1" source="0oZE_neVgrIPyHd80c5C-52" target="0oZE_neVgrIPyHd80c5C-81" edge="1">
          <mxGeometry relative="1" as="geometry" />
        </mxCell>
        <mxCell id="0oZE_neVgrIPyHd80c5C-52" value="i &amp;lt;-- i - 1" style="whiteSpace=wrap;html=1;" parent="1" vertex="1">
          <mxGeometry x="27" y="1190" width="120" height="60" as="geometry" />
        </mxCell>
        <mxCell id="0oZE_neVgrIPyHd80c5C-62" style="edgeStyle=orthogonalEdgeStyle;rounded=0;orthogonalLoop=1;jettySize=auto;html=1;exitX=0.5;exitY=1;exitDx=0;exitDy=0;entryX=0.5;entryY=0;entryDx=0;entryDy=0;" parent="1" source="0oZE_neVgrIPyHd80c5C-60" target="0oZE_neVgrIPyHd80c5C-45" edge="1">
          <mxGeometry relative="1" as="geometry" />
        </mxCell>
        <mxCell id="0oZE_neVgrIPyHd80c5C-60" value="" style="ellipse;whiteSpace=wrap;html=1;" parent="1" vertex="1">
          <mxGeometry x="397.5" y="1429" width="30" height="30" as="geometry" />
        </mxCell>
        <mxCell id="0oZE_neVgrIPyHd80c5C-77" style="edgeStyle=orthogonalEdgeStyle;rounded=0;orthogonalLoop=1;jettySize=auto;html=1;exitX=0.5;exitY=1;exitDx=0;exitDy=0;entryX=0.5;entryY=0;entryDx=0;entryDy=0;" parent="1" source="0oZE_neVgrIPyHd80c5C-72" target="0oZE_neVgrIPyHd80c5C-76" edge="1">
          <mxGeometry relative="1" as="geometry" />
        </mxCell>
        <mxCell id="0oZE_neVgrIPyHd80c5C-72" value="" style="ellipse;whiteSpace=wrap;html=1;" parent="1" vertex="1">
          <mxGeometry x="397" y="1790" width="30" height="30" as="geometry" />
        </mxCell>
        <mxCell id="0oZE_neVgrIPyHd80c5C-75" style="edgeStyle=orthogonalEdgeStyle;rounded=0;orthogonalLoop=1;jettySize=auto;html=1;exitX=0;exitY=0.5;exitDx=0;exitDy=0;entryX=1;entryY=0.5;entryDx=0;entryDy=0;" parent="1" source="0oZE_neVgrIPyHd80c5C-73" target="0oZE_neVgrIPyHd80c5C-72" edge="1">
          <mxGeometry relative="1" as="geometry" />
        </mxCell>
        <mxCell id="0oZE_neVgrIPyHd80c5C-73" value="" style="ellipse;whiteSpace=wrap;html=1;" parent="1" vertex="1">
          <mxGeometry x="792" y="1790" width="30" height="30" as="geometry" />
        </mxCell>
        <mxCell id="0oZE_neVgrIPyHd80c5C-76" value="End" style="ellipse;whiteSpace=wrap;html=1;" parent="1" vertex="1">
          <mxGeometry x="366.5" y="1860" width="90" height="60" as="geometry" />
        </mxCell>
        <mxCell id="0oZE_neVgrIPyHd80c5C-106" style="edgeStyle=orthogonalEdgeStyle;rounded=0;orthogonalLoop=1;jettySize=auto;html=1;exitX=0.5;exitY=1;exitDx=0;exitDy=0;entryX=0.5;entryY=0;entryDx=0;entryDy=0;" parent="1" source="0oZE_neVgrIPyHd80c5C-78" target="0oZE_neVgrIPyHd80c5C-73" edge="1">
          <mxGeometry relative="1" as="geometry">
            <Array as="points">
              <mxPoint x="807" y="886" />
              <mxPoint x="807" y="1790" />
            </Array>
          </mxGeometry>
        </mxCell>
        <mxCell id="0oZE_neVgrIPyHd80c5C-78" value="" style="ellipse;whiteSpace=wrap;html=1;" parent="1" vertex="1">
          <mxGeometry x="792" y="856" width="30" height="30" as="geometry" />
        </mxCell>
        <mxCell id="0oZE_neVgrIPyHd80c5C-82" style="edgeStyle=orthogonalEdgeStyle;rounded=0;orthogonalLoop=1;jettySize=auto;html=1;exitX=1;exitY=0.5;exitDx=0;exitDy=0;entryX=0;entryY=0.5;entryDx=0;entryDy=0;" parent="1" source="0oZE_neVgrIPyHd80c5C-81" target="0oZE_neVgrIPyHd80c5C-16" edge="1">
          <mxGeometry relative="1" as="geometry" />
        </mxCell>
        <mxCell id="0oZE_neVgrIPyHd80c5C-81" value="" style="ellipse;whiteSpace=wrap;html=1;" parent="1" vertex="1">
          <mxGeometry x="72" y="760" width="30" height="30" as="geometry" />
        </mxCell>
        <mxCell id="0oZE_neVgrIPyHd80c5C-96" style="edgeStyle=orthogonalEdgeStyle;rounded=0;orthogonalLoop=1;jettySize=auto;html=1;exitX=0.5;exitY=0;exitDx=0;exitDy=0;entryX=0.5;entryY=1;entryDx=0;entryDy=0;" parent="1" source="0oZE_neVgrIPyHd80c5C-83" target="0oZE_neVgrIPyHd80c5C-91" edge="1">
          <mxGeometry relative="1" as="geometry" />
        </mxCell>
        <mxCell id="0oZE_neVgrIPyHd80c5C-83" value="" style="ellipse;whiteSpace=wrap;html=1;" parent="1" vertex="1">
          <mxGeometry x="72" y="1663" width="30" height="30" as="geometry" />
        </mxCell>
        <mxCell id="0oZE_neVgrIPyHd80c5C-94" style="edgeStyle=orthogonalEdgeStyle;rounded=0;orthogonalLoop=1;jettySize=auto;html=1;exitX=0.5;exitY=0;exitDx=0;exitDy=0;entryX=0.5;entryY=1;entryDx=0;entryDy=0;" parent="1" source="0oZE_neVgrIPyHd80c5C-89" target="0oZE_neVgrIPyHd80c5C-39" edge="1">
          <mxGeometry relative="1" as="geometry" />
        </mxCell>
        <mxCell id="0oZE_neVgrIPyHd80c5C-89" value="" style="ellipse;whiteSpace=wrap;html=1;" parent="1" vertex="1">
          <mxGeometry x="245" y="1329.04" width="30" height="30" as="geometry" />
        </mxCell>
        <mxCell id="0oZE_neVgrIPyHd80c5C-97" style="edgeStyle=orthogonalEdgeStyle;rounded=0;orthogonalLoop=1;jettySize=auto;html=1;exitX=0.5;exitY=0;exitDx=0;exitDy=0;entryX=0.5;entryY=1;entryDx=0;entryDy=0;" parent="1" source="0oZE_neVgrIPyHd80c5C-91" target="0oZE_neVgrIPyHd80c5C-52" edge="1">
          <mxGeometry relative="1" as="geometry" />
        </mxCell>
        <mxCell id="0oZE_neVgrIPyHd80c5C-91" value="" style="ellipse;whiteSpace=wrap;html=1;" parent="1" vertex="1">
          <mxGeometry x="72" y="1533" width="30" height="30" as="geometry" />
        </mxCell>
        <mxCell id="0oZE_neVgrIPyHd80c5C-101" style="edgeStyle=orthogonalEdgeStyle;rounded=0;orthogonalLoop=1;jettySize=auto;html=1;exitX=1;exitY=0.5;exitDx=0;exitDy=0;entryX=0;entryY=0.5;entryDx=0;entryDy=0;" parent="1" source="0oZE_neVgrIPyHd80c5C-99" target="0oZE_neVgrIPyHd80c5C-41" edge="1">
          <mxGeometry relative="1" as="geometry" />
        </mxCell>
        <mxCell id="0oZE_neVgrIPyHd80c5C-99" value="" style="ellipse;whiteSpace=wrap;html=1;" parent="1" vertex="1">
          <mxGeometry x="245" y="1079" width="30" height="30" as="geometry" />
        </mxCell>
        <mxCell id="0oZE_neVgrIPyHd80c5C-103" value="" style="strokeWidth=2;html=1;shape=mxgraph.flowchart.annotation_2;align=left;labelPosition=right;pointerEvents=1;" parent="1" vertex="1">
          <mxGeometry x="295" y="831" width="50" height="100" as="geometry" />
        </mxCell>
        <mxCell id="0oZE_neVgrIPyHd80c5C-104" value="i น้อยกว่า&amp;nbsp; 2&lt;div&gt;ให้ออกจาก Loop&lt;span style=&quot;background-color: transparent; color: light-dark(rgb(0, 0, 0), rgb(255, 255, 255));&quot;&gt;&amp;nbsp;&lt;/span&gt;&lt;/div&gt;" style="text;html=1;align=center;verticalAlign=middle;whiteSpace=wrap;rounded=0;" parent="1" vertex="1">
          <mxGeometry x="137" y="866" width="150" height="30" as="geometry" />
        </mxCell>
        <mxCell id="0oZE_neVgrIPyHd80c5C-107" value="" style="strokeWidth=2;html=1;shape=mxgraph.flowchart.annotation_2;align=left;labelPosition=right;pointerEvents=1;rotation=-180;" parent="1" vertex="1">
          <mxGeometry x="500" y="950" width="50" height="100" as="geometry" />
        </mxCell>
        <mxCell id="0oZE_neVgrIPyHd80c5C-108" value="กำหนดให้ j เท่ากับ 2 เพราะ 2 เป็นจำนวนเฉพาะตัวแรก" style="text;html=1;align=center;verticalAlign=middle;whiteSpace=wrap;rounded=0;" parent="1" vertex="1">
          <mxGeometry x="567" y="985" width="150" height="30" as="geometry" />
        </mxCell>
        <mxCell id="0oZE_neVgrIPyHd80c5C-109" value="" style="strokeWidth=2;html=1;shape=mxgraph.flowchart.annotation_2;align=left;labelPosition=right;pointerEvents=1;rotation=-180;" parent="1" vertex="1">
          <mxGeometry x="550" y="1168" width="50" height="291" as="geometry" />
        </mxCell>
        <mxCell id="0oZE_neVgrIPyHd80c5C-110" value="วนหาตัวหารอื่นนอกจาก 1 และ ตัวมันเอง ถ้า i หาร j แล้วไม่มีเศษ ให้ออกจาก Loop" style="text;html=1;align=center;verticalAlign=middle;whiteSpace=wrap;rounded=0;" parent="1" vertex="1">
          <mxGeometry x="617" y="1299.04" width="150" height="30" as="geometry" />
        </mxCell>
        <mxCell id="0oZE_neVgrIPyHd80c5C-111" value="" style="strokeWidth=2;html=1;shape=mxgraph.flowchart.annotation_2;align=left;labelPosition=right;pointerEvents=1;rotation=-180;" parent="1" vertex="1">
          <mxGeometry x="503" y="1519" width="50" height="58" as="geometry" />
        </mxCell>
        <mxCell id="0oZE_neVgrIPyHd80c5C-112" value="ตรวจสอบว่า ไม่มีตัวหารอื่นนอกจาก i (ตัวมันเอง) คือจำนวนเฉพาะ" style="text;html=1;align=center;verticalAlign=middle;whiteSpace=wrap;rounded=0;" parent="1" vertex="1">
          <mxGeometry x="577" y="1533" width="180" height="30" as="geometry" />
        </mxCell>
        <mxCell id="0oZE_neVgrIPyHd80c5C-116" value="" style="strokeWidth=2;html=1;shape=mxgraph.flowchart.annotation_2;align=left;labelPosition=right;pointerEvents=1;rotation=-180;" parent="1" vertex="1">
          <mxGeometry x="537" y="1648" width="50" height="58" as="geometry" />
        </mxCell>
        <mxCell id="0oZE_neVgrIPyHd80c5C-117" value="แสดงค่า i ในแต่ละรอบ" style="text;html=1;align=center;verticalAlign=middle;whiteSpace=wrap;rounded=0;" parent="1" vertex="1">
          <mxGeometry x="602" y="1662" width="180" height="30" as="geometry" />
        </mxCell>
      </root>
    </mxGraphModel>
  </diagram>
</mxfile>
